<?xml version="1.0" encoding="utf-8"?>
<!-- Generator: Adobe Illustrator 27.8.1, SVG Export Plug-In . SVG Version: 6.00 Build 0)  -->
<svg version="1.1" id="Layer_1" xmlns="http://www.w3.org/2000/svg" xmlns:xlink="http://www.w3.org/1999/xlink" x="0px" y="0px"
	 viewBox="0 0 500 500" style="enable-background:new 0 0 500 500;" xml:space="preserve">
<style type="text/css">
	.st0{fill:#FFFFFF;}
</style>
<g>
	<path d="M396.22,84.39H215.86H90.99H12.77v56.12v35.94v183.04c0,30.99,35.02,56.12,78.22,56.12h263.3h41.93h78.22v-56.12v-30.08
		v-188.9C474.45,109.52,439.43,84.39,396.22,84.39z"/>
	<g>
		<path class="st0" d="M258.05,135.28h-44.87c0.14,22.83-8.49,45.69-25.91,63.11c-0.46,0.46-0.95,0.9-1.42,1.35L43.88,341.65
			l40.64,40.66l173.54-173.46V135.28z"/>
		<path class="st0" d="M329.75,135.28c0.32,0.79-71.7,73.57-71.7,73.57v80.69l103.65-115.02l0.07,190.21h39.99V135.28H329.75z"/>
		<polygon class="st0" points="258.05,364.72 361.71,248.72 361.71,231.43 258.05,346.45 		"/>
	</g>
</g>
</svg>
